<?xml version="1.0" encoding="UTF-8"?>
<svg id="Layer_2" data-name="Layer 2" xmlns="http://www.w3.org/2000/svg" viewBox="0 0 1195.41 464.82">
  <defs>
    <style>
      .cls-1 {
        fill: #38271e;
        stroke: #38271e;
        stroke-miterlimit: 10;
        stroke-width: 7px;
      }
    </style>
  </defs>
  <g id="Layer_2-2" data-name="Layer 2">
    <g>
      <path class="cls-1" d="M20.13,461.17c-.49.05-1.76.15-2.26.14-7.64-.03-13.78-1.13-13.75-8.75L3.5,23.6c-.11-6.82,3.77-13.05,9.98-15.94,6.3-2.95,13.72-1.84,18.89,2.82l.41.39c73.69,71.19,147.39,142.38,221.08,213.57,73.05,70.57,146.11,141.14,219.16,211.71,5.42,5.3,5.51,14.11.19,19.51-5.35,5.45-14.12,5.54-19.57.21L31.09,47.86l.72,404.99c-.03,7.12-4.73,7.61-11.67,8.33Z"/>
      <path class="cls-1" d="M471.05,460.53c-.49.05-1.76.15-2.26.14-7.64-.03-13.78-1.13-13.75-8.75l-.62-428.96c-.11-6.82,3.77-13.05,9.98-15.94,6.3-2.95,13.72-1.84,18.89,2.82l.41.39c73.69,71.19,147.39,142.38,221.08,213.57,73.05,70.57,146.11,141.14,219.16,211.71,5.42,5.3,5.51,14.11.19,19.51-5.35,5.45-14.12,5.54-19.57.21L482,47.21l.72,404.99c-.03,7.12-4.73,7.61-11.67,8.33Z"/>
      <path class="cls-1" d="M1090.11,67.75c-6.87,5.25-24.74,20.39-232.2,180.04-5.06,3.9-8.25,6.01-11.78,9.6-1.78,1.81,4.85,11.82,8.44,15.35,3.94,3.87,8.49,8.09,12.03,4.94,1.58-1.4,12.36-9.81,14.03-11.1l283.19-220.61.41,404.11c0,7.62,6.12,7.77,13.77,7.86,7.64.1,13.92.34,13.91-7.27l-.28-431.86c0-6.84-4.63-12.92-11.24-14.77-2.05-.57-4.18-.55-4.4-.54-4.61.14-7.98,2.45-10.34,4.19-41.37,32.46-70.82,56.46-75.54,60.06Z"/>
    </g>
  </g>
</svg>