<?xml version="1.0" encoding="UTF-8"?>
<svg id="Layer_2" data-name="Layer 2" xmlns="http://www.w3.org/2000/svg" viewBox="0 0 2373.13 345.57">
  <defs>
    <style>
      .cls-1 {
        fill: #38271e;
        stroke: #38271e;
        stroke-miterlimit: 10;
        stroke-width: 7px;
      }
    </style>
  </defs>
  <g id="Layer_2-2" data-name="Layer 2">
    <g>
      <path class="cls-1" d="M1269.88,66.02c0,3.41-4.15,5.13-6.52,2.68-27.48-28.35-64.78-44.27-103.74-44.27-83.8,0-146.54,67.14-146.54,149.97,0,97.04,80.86,147.52,147.03,147.52,30.76,0,70.98-11.61,103.34-42.9,2.41-2.33,6.43-.57,6.43,2.78v17.29c0,1.11-.48,2.19-1.33,2.92-33.06,28.54-72.65,39.52-107.47,39.52-98.02,0-170.55-76.94-170.55-168.1S1066.06,4.82,1160.15,4.82c59.93,0,97.08,30.9,108.51,41.5.78.72,1.21,1.73,1.21,2.79v16.9Z"/>
      <path class="cls-1" d="M1628.14,65.75c0,3.23-3.92,4.75-6.15,2.42-27.52-28.59-64.83-44.66-104.12-44.66-83.8,0-146.54,67.14-146.54,149.97,0,97.04,80.86,147.52,147.03,147.52,30.88,0,71.29-11.7,103.72-43.26,2.27-2.21,6.06-.65,6.06,2.51v18.04c0,1.04-.45,2.04-1.24,2.71-33.08,28.6-72.71,39.6-107.56,39.6-98.02,0-170.55-76.94-170.55-168.1S1424.26,3.91,1518.36,3.91c60.07,0,97.32,31.05,108.65,41.58.72.67,1.13,1.61,1.13,2.6v17.66Z"/>
      <path class="cls-1" d="M2047.02,172.82c0,94.09-74,168.09-169.57,168.09s-169.57-74-169.57-168.09S1781.89,4.23,1877.45,4.23s169.57,74.49,169.57,168.58ZM2024.48,172.82c0-83.8-62.73-148.98-147.03-148.98s-147.03,65.18-147.03,148.98,62.73,148.49,147.03,148.49,147.03-65.18,147.03-148.49Z"/>
      <g>
        <path class="cls-1" d="M2211.86,201.27c-.02.11-.03.22-.03.34v136.31c0,1.91,1.53,3.45,3.41,3.45h14.74c1.89,0,3.41-1.55,3.41-3.45v-136.31c0-.99.26-1.97.77-2.83l1.07-1.84c.36-.62.38-1.36.07-2-2.53-5.22-4.34-10.76-6.56-16.11-.42-1.01-2.55-2.69-3.22-4.74-2.87,3.12-2.91,5.81-8.12-1.23.01.64-.62,2.95-1.09,4.05-.23.53-.49.96-.74,1.3l-3.71,23.06Z"/>
        <path class="cls-1" d="M2366.21,4.2h-16.57c-1.22,0-2.34.65-2.95,1.72l-122.01,169.35c.22.86.5,1.75.85,2.71.11.31.23.62.35.93.05.12.12.28.18.41.35.74.72,1.46,1.12,2.17.72,1.27,1.52,2.49,2.36,3.69,2.32,3.29,4.79,6.42,7.1,9.68l132.51-185.45c1.34-2.3-.3-5.21-2.94-5.21Z"/>
        <path class="cls-1" d="M2078.34,4.2h16.57c1.22,0,2.34.65,2.95,1.72l122.01,169.35c-.22.86-.5,1.75-.85,2.71-.11.31-.23.62-.35.93-.05.12-.12.28-.18.41-.35.74-.72,1.46-1.12,2.17-.72,1.27-1.52,2.49-2.36,3.69-2.32,3.29-4.79,6.42-7.1,9.68l-132.51-185.45c-1.34-2.3.3-5.21,2.94-5.21Z"/>
        <path class="cls-1" d="M2232.74,201.27c.02.11.03.22.03.34v136.31c0,1.91-1.53,3.45-3.41,3.45h-14.74c-1.89,0-3.41-1.55-3.41-3.45v-136.31c0-.99-.26-1.97-.77-2.83l-1.07-1.84c-.36-.62-.38-1.36-.07-2,2.53-5.22,4.34-10.76,6.56-16.11.42-1.01,2.55-2.69,3.22-4.74,2.87,3.12,2.91,5.81,8.12-1.23-.01.64.62,2.95,1.09,4.05.23.53.49.96.74,1.3l3.71,23.06Z"/>
      </g>
      <path class="cls-1" d="M15.84,341.97c-.36.04-1.3.11-1.68.11-5.67-.02-10.22-.84-10.2-6.49L3.5,17.38c-.08-5.06,2.8-9.68,7.4-11.83,4.67-2.19,10.18-1.36,14.01,2.09l.3.29c54.67,52.81,109.33,105.62,164,158.42,54.19,52.35,108.38,104.7,162.57,157.04,4.02,3.93,4.09,10.46.14,14.48-3.97,4.04-10.47,4.11-14.52.15L23.96,35.38l.53,300.41c-.02,5.28-3.51,5.65-8.66,6.18Z"/>
      <path class="cls-1" d="M350.32,341.49c-.36.04-1.3.11-1.68.11-5.67-.02-10.22-.84-10.2-6.49l-.46-318.2c-.08-5.06,2.8-9.68,7.4-11.83,4.67-2.19,10.18-1.36,14.01,2.09l.3.29c54.67,52.81,109.33,105.62,164,158.42,54.19,52.35,108.38,104.7,162.57,157.04,4.02,3.93,4.09,10.46.14,14.48-3.97,4.04-10.47,4.11-14.52.15L358.44,34.9l.53,300.41c-.02,5.28-3.51,5.65-8.66,6.18Z"/>
      <path class="cls-1" d="M810.6,50.6c-5.13,3.85-18.49,14.96-173.41,132.04-3.78,2.86-6.16,4.4-8.8,7.04-1.33,1.33,3.52,8.8,6.16,11.44,2.9,2.9,6.25,6.06,8.89,3.74,1.18-1.03,9.23-7.2,10.48-8.15l211.49-161.8-2.33,299.76c-.04,5.65,4.49,5.8,10.16,5.92,5.67.12,10.32.34,10.37-5.31l2.6-320.34c.04-5.08-3.35-9.61-8.24-11.03-1.52-.44-3.09-.43-3.26-.43-3.42.07-5.94,1.77-7.7,3.04-30.89,23.81-52.9,41.42-56.42,44.06Z"/>
    </g>
  </g>
</svg>